<svg xmlns="http://www.w3.org/2000/svg" width="805" height="600"><rect width="805" height="600" x="0" y="0" fill="#FFFFFF" id="backgorund"/><g id="viz"><clipPath id="serieClipPath"><rect x="-50" y="-10" width="805" height="600"/></clipPath><g transform="translate(0,0)"><g transform="translate(50,10)" clip-path="url(#serieClipPath)"><g id="axis"><g transform="translate(0,570)" fill="none" font-size="10" font-family="sans-serif" text-anchor="middle"><path class="domain" stroke="currentColor" d="M0.5,0.5H740.5"/><g class="tick" opacity="1" transform="translate(0.5,0)"><line stroke="currentColor" y2="6"/><text fill="currentColor" y="9" dy="0.71em">0</text></g><g class="tick" opacity="1" transform="translate(74.5,0)"><line stroke="currentColor" y2="6"/><text fill="currentColor" y="9" dy="0.71em">10</text></g><g class="tick" opacity="1" transform="translate(148.5,0)"><line stroke="currentColor" y2="6"/><text fill="currentColor" y="9" dy="0.71em">20</text></g><g class="tick" opacity="1" transform="translate(222.5,0)"><line stroke="currentColor" y2="6"/><text fill="currentColor" y="9" dy="0.71em">30</text></g><g class="tick" opacity="1" transform="translate(296.5,0)"><line stroke="currentColor" y2="6"/><text fill="currentColor" y="9" dy="0.71em">40</text></g><g class="tick" opacity="1" transform="translate(370.5,0)"><line stroke="currentColor" y2="6"/><text fill="currentColor" y="9" dy="0.71em">50</text></g><g class="tick" opacity="1" transform="translate(444.5,0)"><line stroke="currentColor" y2="6"/><text fill="currentColor" y="9" dy="0.71em">60</text></g><g class="tick" opacity="1" transform="translate(518.5,0)"><line stroke="currentColor" y2="6"/><text fill="currentColor" y="9" dy="0.71em">70</text></g><g class="tick" opacity="1" transform="translate(592.5,0)"><line stroke="currentColor" y2="6"/><text fill="currentColor" y="9" dy="0.71em">80</text></g><g class="tick" opacity="1" transform="translate(666.5,0)"><line stroke="currentColor" y2="6"/><text fill="currentColor" y="9" dy="0.71em">90</text></g><g class="tick" opacity="1" transform="translate(740.5,0)"><line stroke="currentColor" y2="6"/><text fill="currentColor" y="9" dy="0.71em">100</text></g><text x="740" dy="-5" text-anchor="end" style="font-family: Arial, sans-serif; font-size: 12px; fill: rgb(123, 123, 123); font-weight: bold;">Geração</text></g><g transform="translate(0,0)" fill="none" font-size="10" font-family="sans-serif" text-anchor="end"><path class="domain" stroke="currentColor" d="M0.5,570.5V0.5"/><g class="tick" opacity="1" transform="translate(0,570.5)"><line stroke="currentColor" x2="-6"/><text fill="currentColor" x="-9" dy="0.32em">0.0</text></g><g class="tick" opacity="1" transform="translate(0,499.25)"><line stroke="currentColor" x2="-6"/><text fill="currentColor" x="-9" dy="0.32em">0.1</text></g><g class="tick" opacity="1" transform="translate(0,428)"><line stroke="currentColor" x2="-6"/><text fill="currentColor" x="-9" dy="0.32em">0.2</text></g><g class="tick" opacity="1" transform="translate(0,356.75)"><line stroke="currentColor" x2="-6"/><text fill="currentColor" x="-9" dy="0.32em">0.3</text></g><g class="tick" opacity="1" transform="translate(0,285.5)"><line stroke="currentColor" x2="-6"/><text fill="currentColor" x="-9" dy="0.32em">0.4</text></g><g class="tick" opacity="1" transform="translate(0,214.25)"><line stroke="currentColor" x2="-6"/><text fill="currentColor" x="-9" dy="0.32em">0.5</text></g><g class="tick" opacity="1" transform="translate(0,143.00000000000006)"><line stroke="currentColor" x2="-6"/><text fill="currentColor" x="-9" dy="0.32em">0.6</text></g><g class="tick" opacity="1" transform="translate(0,71.75000000000006)"><line stroke="currentColor" x2="-6"/><text fill="currentColor" x="-9" dy="0.32em">0.7</text></g><g class="tick" opacity="1" transform="translate(0,0.5)"><line stroke="currentColor" x2="-6"/><text fill="currentColor" x="-9" dy="0.32em">0.8</text></g><text x="4" text-anchor="start" dominant-baseline="hanging" style="font-family: Arial, sans-serif; font-size: 12px; fill: rgb(123, 123, 123); font-weight: bold;"> Fx</text></g></g><g id="viz"><g><path d="M7.4,15.833333317500006L14.8,15.833333317500006L22.2,15.833333317500006L29.6,15.833333317500006L37,15.833333317500006L44.4,15.833333317500006L51.800000000000004,15.833333317500006L59.2,15.833333317500006L66.6,15.833333317500006L74,15.833333317500006L81.4,15.833333317500006L88.8,15.833333317500006L96.2,15.833333317500006L103.60000000000001,35.625L111,35.625L118.4,35.625L125.80000000000001,35.625L133.2,35.625L140.6,35.625L148,35.625L155.4,35.625L162.8,35.625L170.20000000000002,94.99999997625004L177.6,94.99999997625004L185,94.99999997625004L192.4,94.99999997625004L199.8,94.99999997625004L207.20000000000002,94.99999997625004L214.6,94.99999997625004L222,94.99999997625004L229.4,174.166666635L236.8,174.166666635L244.20000000000002,174.166666635L251.60000000000002,174.166666635L259,174.166666635L266.4,174.166666635L273.8,174.166666635L281.2,174.166666635L288.6,174.166666635L296,174.166666635L303.4,174.166666635L310.8,174.166666635L318.2,174.166666635L325.6,174.166666635L333,174.166666635L340.40000000000003,174.166666635L347.79999999999995,174.166666635L355.2,174.166666635L362.59999999999997,253.333333365L370,253.333333365L377.40000000000003,253.333333365L384.8,253.333333365L392.20000000000005,253.333333365L399.6,253.333333365L407.00000000000006,253.333333365L414.40000000000003,253.333333365L421.79999999999995,253.333333365L429.2,253.333333365L436.59999999999997,253.333333365L444,253.333333365L451.4,253.333333365L458.8,253.333333365L466.2,253.333333365L473.6,253.333333365L481,253.333333365L488.40000000000003,253.333333365L495.8,253.333333365L503.20000000000005,253.333333365L510.59999999999997,253.333333365L518,253.333333365L525.4,253.333333365L532.8,253.333333365L540.1999999999999,253.333333365L547.6,253.333333365L555,253.333333365L562.4,253.333333365L569.8000000000001,352.291666635L577.2,352.291666635L584.6,352.291666635L592,352.291666635L599.4000000000001,352.291666635L606.8,352.291666635L614.1999999999999,352.291666635L621.6,352.291666635L629,352.291666635L636.4,352.291666635L643.8,352.291666635L651.2,352.291666635L658.6,352.291666635L666,352.291666635L673.4,352.291666635L680.8000000000001,352.291666635L688.2,352.291666635L695.5999999999999,352.291666635L703,352.291666635L710.4,570" stroke="#1f77b4" fill="none"/><g><circle class="dot" cx="7.4" cy="15.833333317500006" r="4" fill="#1f77b4"/><circle class="dot" cx="14.8" cy="15.833333317500006" r="4" fill="#1f77b4"/><circle class="dot" cx="22.2" cy="15.833333317500006" r="4" fill="#1f77b4"/><circle class="dot" cx="29.6" cy="15.833333317500006" r="4" fill="#1f77b4"/><circle class="dot" cx="37" cy="15.833333317500006" r="4" fill="#1f77b4"/><circle class="dot" cx="44.4" cy="15.833333317500006" r="4" fill="#1f77b4"/><circle class="dot" cx="51.800000000000004" cy="15.833333317500006" r="4" fill="#1f77b4"/><circle class="dot" cx="59.2" cy="15.833333317500006" r="4" fill="#1f77b4"/><circle class="dot" cx="66.6" cy="15.833333317500006" r="4" fill="#1f77b4"/><circle class="dot" cx="74" cy="15.833333317500006" r="4" fill="#1f77b4"/><circle class="dot" cx="81.4" cy="15.833333317500006" r="4" fill="#1f77b4"/><circle class="dot" cx="88.8" cy="15.833333317500006" r="4" fill="#1f77b4"/><circle class="dot" cx="96.2" cy="15.833333317500006" r="4" fill="#1f77b4"/><circle class="dot" cx="103.60000000000001" cy="35.625" r="4" fill="#1f77b4"/><circle class="dot" cx="111" cy="35.625" r="4" fill="#1f77b4"/><circle class="dot" cx="118.4" cy="35.625" r="4" fill="#1f77b4"/><circle class="dot" cx="125.80000000000001" cy="35.625" r="4" fill="#1f77b4"/><circle class="dot" cx="133.2" cy="35.625" r="4" fill="#1f77b4"/><circle class="dot" cx="140.6" cy="35.625" r="4" fill="#1f77b4"/><circle class="dot" cx="148" cy="35.625" r="4" fill="#1f77b4"/><circle class="dot" cx="155.4" cy="35.625" r="4" fill="#1f77b4"/><circle class="dot" cx="162.8" cy="35.625" r="4" fill="#1f77b4"/><circle class="dot" cx="170.20000000000002" cy="94.99999997625004" r="4" fill="#1f77b4"/><circle class="dot" cx="177.6" cy="94.99999997625004" r="4" fill="#1f77b4"/><circle class="dot" cx="185" cy="94.99999997625004" r="4" fill="#1f77b4"/><circle class="dot" cx="192.4" cy="94.99999997625004" r="4" fill="#1f77b4"/><circle class="dot" cx="199.8" cy="94.99999997625004" r="4" fill="#1f77b4"/><circle class="dot" cx="207.20000000000002" cy="94.99999997625004" r="4" fill="#1f77b4"/><circle class="dot" cx="214.6" cy="94.99999997625004" r="4" fill="#1f77b4"/><circle class="dot" cx="222" cy="94.99999997625004" r="4" fill="#1f77b4"/><circle class="dot" cx="229.4" cy="174.166666635" r="4" fill="#1f77b4"/><circle class="dot" cx="236.8" cy="174.166666635" r="4" fill="#1f77b4"/><circle class="dot" cx="244.20000000000002" cy="174.166666635" r="4" fill="#1f77b4"/><circle class="dot" cx="251.60000000000002" cy="174.166666635" r="4" fill="#1f77b4"/><circle class="dot" cx="259" cy="174.166666635" r="4" fill="#1f77b4"/><circle class="dot" cx="266.4" cy="174.166666635" r="4" fill="#1f77b4"/><circle class="dot" cx="273.8" cy="174.166666635" r="4" fill="#1f77b4"/><circle class="dot" cx="281.2" cy="174.166666635" r="4" fill="#1f77b4"/><circle class="dot" cx="288.6" cy="174.166666635" r="4" fill="#1f77b4"/><circle class="dot" cx="296" cy="174.166666635" r="4" fill="#1f77b4"/><circle class="dot" cx="303.4" cy="174.166666635" r="4" fill="#1f77b4"/><circle class="dot" cx="310.8" cy="174.166666635" r="4" fill="#1f77b4"/><circle class="dot" cx="318.2" cy="174.166666635" r="4" fill="#1f77b4"/><circle class="dot" cx="325.6" cy="174.166666635" r="4" fill="#1f77b4"/><circle class="dot" cx="333" cy="174.166666635" r="4" fill="#1f77b4"/><circle class="dot" cx="340.40000000000003" cy="174.166666635" r="4" fill="#1f77b4"/><circle class="dot" cx="347.79999999999995" cy="174.166666635" r="4" fill="#1f77b4"/><circle class="dot" cx="355.2" cy="174.166666635" r="4" fill="#1f77b4"/><circle class="dot" cx="362.59999999999997" cy="253.333333365" r="4" fill="#1f77b4"/><circle class="dot" cx="370" cy="253.333333365" r="4" fill="#1f77b4"/><circle class="dot" cx="377.40000000000003" cy="253.333333365" r="4" fill="#1f77b4"/><circle class="dot" cx="384.8" cy="253.333333365" r="4" fill="#1f77b4"/><circle class="dot" cx="392.20000000000005" cy="253.333333365" r="4" fill="#1f77b4"/><circle class="dot" cx="399.6" cy="253.333333365" r="4" fill="#1f77b4"/><circle class="dot" cx="407.00000000000006" cy="253.333333365" r="4" fill="#1f77b4"/><circle class="dot" cx="414.40000000000003" cy="253.333333365" r="4" fill="#1f77b4"/><circle class="dot" cx="421.79999999999995" cy="253.333333365" r="4" fill="#1f77b4"/><circle class="dot" cx="429.2" cy="253.333333365" r="4" fill="#1f77b4"/><circle class="dot" cx="436.59999999999997" cy="253.333333365" r="4" fill="#1f77b4"/><circle class="dot" cx="444" cy="253.333333365" r="4" fill="#1f77b4"/><circle class="dot" cx="451.4" cy="253.333333365" r="4" fill="#1f77b4"/><circle class="dot" cx="458.8" cy="253.333333365" r="4" fill="#1f77b4"/><circle class="dot" cx="466.2" cy="253.333333365" r="4" fill="#1f77b4"/><circle class="dot" cx="473.6" cy="253.333333365" r="4" fill="#1f77b4"/><circle class="dot" cx="481" cy="253.333333365" r="4" fill="#1f77b4"/><circle class="dot" cx="488.40000000000003" cy="253.333333365" r="4" fill="#1f77b4"/><circle class="dot" cx="495.8" cy="253.333333365" r="4" fill="#1f77b4"/><circle class="dot" cx="503.20000000000005" cy="253.333333365" r="4" fill="#1f77b4"/><circle class="dot" cx="510.59999999999997" cy="253.333333365" r="4" fill="#1f77b4"/><circle class="dot" cx="518" cy="253.333333365" r="4" fill="#1f77b4"/><circle class="dot" cx="525.4" cy="253.333333365" r="4" fill="#1f77b4"/><circle class="dot" cx="532.8" cy="253.333333365" r="4" fill="#1f77b4"/><circle class="dot" cx="540.1999999999999" cy="253.333333365" r="4" fill="#1f77b4"/><circle class="dot" cx="547.6" cy="253.333333365" r="4" fill="#1f77b4"/><circle class="dot" cx="555" cy="253.333333365" r="4" fill="#1f77b4"/><circle class="dot" cx="562.4" cy="253.333333365" r="4" fill="#1f77b4"/><circle class="dot" cx="569.8000000000001" cy="352.291666635" r="4" fill="#1f77b4"/><circle class="dot" cx="577.2" cy="352.291666635" r="4" fill="#1f77b4"/><circle class="dot" cx="584.6" cy="352.291666635" r="4" fill="#1f77b4"/><circle class="dot" cx="592" cy="352.291666635" r="4" fill="#1f77b4"/><circle class="dot" cx="599.4000000000001" cy="352.291666635" r="4" fill="#1f77b4"/><circle class="dot" cx="606.8" cy="352.291666635" r="4" fill="#1f77b4"/><circle class="dot" cx="614.1999999999999" cy="352.291666635" r="4" fill="#1f77b4"/><circle class="dot" cx="621.6" cy="352.291666635" r="4" fill="#1f77b4"/><circle class="dot" cx="629" cy="352.291666635" r="4" fill="#1f77b4"/><circle class="dot" cx="636.4" cy="352.291666635" r="4" fill="#1f77b4"/><circle class="dot" cx="643.8" cy="352.291666635" r="4" fill="#1f77b4"/><circle class="dot" cx="651.2" cy="352.291666635" r="4" fill="#1f77b4"/><circle class="dot" cx="658.6" cy="352.291666635" r="4" fill="#1f77b4"/><circle class="dot" cx="666" cy="352.291666635" r="4" fill="#1f77b4"/><circle class="dot" cx="673.4" cy="352.291666635" r="4" fill="#1f77b4"/><circle class="dot" cx="680.8000000000001" cy="352.291666635" r="4" fill="#1f77b4"/><circle class="dot" cx="688.2" cy="352.291666635" r="4" fill="#1f77b4"/><circle class="dot" cx="695.5999999999999" cy="352.291666635" r="4" fill="#1f77b4"/><circle class="dot" cx="703" cy="352.291666635" r="4" fill="#1f77b4"/><circle class="dot" cx="710.4" cy="570" r="4" fill="#1f77b4"/></g><text font-family="sans-serif" font-size="10" class="labels" x="7.4" y="15.833333317500006" dx="0" dy="-4" text-anchor="middle"/></g></g></g><text y="4" x="4" style="font-family: Arial, sans-serif; font-size: 12px; fill: black; font-weight: bold; dominant-baseline: hanging;"/></g><g id="grid"><rect x="0" y="0" width="805" height="600" fill="none" stroke="#ccc"/></g></g></svg>