<svg xmlns="http://www.w3.org/2000/svg" width="805" height="600"><rect width="805" height="600" x="0" y="0" fill="#FFFFFF" id="backgorund"/><g id="viz"><clipPath id="serieClipPath"><rect x="-50" y="-10" width="805" height="600"/></clipPath><g transform="translate(0,0)"><g transform="translate(50,10)" clip-path="url(#serieClipPath)"><g id="axis"><g transform="translate(0,570)" fill="none" font-size="10" font-family="sans-serif" text-anchor="middle"><path class="domain" stroke="currentColor" d="M0.5,0.5H740.5"/><g class="tick" opacity="1" transform="translate(0.5,0)"><line stroke="currentColor" y2="6"/><text fill="currentColor" y="9" dy="0.71em">0</text></g><g class="tick" opacity="1" transform="translate(93,0)"><line stroke="currentColor" y2="6"/><text fill="currentColor" y="9" dy="0.71em">5</text></g><g class="tick" opacity="1" transform="translate(185.5,0)"><line stroke="currentColor" y2="6"/><text fill="currentColor" y="9" dy="0.71em">10</text></g><g class="tick" opacity="1" transform="translate(278,0)"><line stroke="currentColor" y2="6"/><text fill="currentColor" y="9" dy="0.71em">15</text></g><g class="tick" opacity="1" transform="translate(370.5,0)"><line stroke="currentColor" y2="6"/><text fill="currentColor" y="9" dy="0.71em">20</text></g><g class="tick" opacity="1" transform="translate(463,0)"><line stroke="currentColor" y2="6"/><text fill="currentColor" y="9" dy="0.71em">25</text></g><g class="tick" opacity="1" transform="translate(555.5,0)"><line stroke="currentColor" y2="6"/><text fill="currentColor" y="9" dy="0.71em">30</text></g><g class="tick" opacity="1" transform="translate(648,0)"><line stroke="currentColor" y2="6"/><text fill="currentColor" y="9" dy="0.71em">35</text></g><g class="tick" opacity="1" transform="translate(740.5,0)"><line stroke="currentColor" y2="6"/><text fill="currentColor" y="9" dy="0.71em">40</text></g><text x="740" dy="-5" text-anchor="end" style="font-family: Arial, sans-serif; font-size: 12px; fill: rgb(123, 123, 123); font-weight: bold;">Geração</text></g><g transform="translate(0,0)" fill="none" font-size="10" font-family="sans-serif" text-anchor="end"><path class="domain" stroke="currentColor" d="M0.5,570.5V0.5"/><g class="tick" opacity="1" transform="translate(0,570.5)"><line stroke="currentColor" x2="-6"/><text fill="currentColor" x="-9" dy="0.32em">0.00</text></g><g class="tick" opacity="1" transform="translate(0,526.6538461538462)"><line stroke="currentColor" x2="-6"/><text fill="currentColor" x="-9" dy="0.32em">0.05</text></g><g class="tick" opacity="1" transform="translate(0,482.8076923076923)"><line stroke="currentColor" x2="-6"/><text fill="currentColor" x="-9" dy="0.32em">0.10</text></g><g class="tick" opacity="1" transform="translate(0,438.9615384615385)"><line stroke="currentColor" x2="-6"/><text fill="currentColor" x="-9" dy="0.32em">0.15</text></g><g class="tick" opacity="1" transform="translate(0,395.1153846153846)"><line stroke="currentColor" x2="-6"/><text fill="currentColor" x="-9" dy="0.32em">0.20</text></g><g class="tick" opacity="1" transform="translate(0,351.2692307692308)"><line stroke="currentColor" x2="-6"/><text fill="currentColor" x="-9" dy="0.32em">0.25</text></g><g class="tick" opacity="1" transform="translate(0,307.42307692307696)"><line stroke="currentColor" x2="-6"/><text fill="currentColor" x="-9" dy="0.32em">0.30</text></g><g class="tick" opacity="1" transform="translate(0,263.5769230769231)"><line stroke="currentColor" x2="-6"/><text fill="currentColor" x="-9" dy="0.32em">0.35</text></g><g class="tick" opacity="1" transform="translate(0,219.7307692307692)"><line stroke="currentColor" x2="-6"/><text fill="currentColor" x="-9" dy="0.32em">0.40</text></g><g class="tick" opacity="1" transform="translate(0,175.8846153846154)"><line stroke="currentColor" x2="-6"/><text fill="currentColor" x="-9" dy="0.32em">0.45</text></g><g class="tick" opacity="1" transform="translate(0,132.03846153846158)"><line stroke="currentColor" x2="-6"/><text fill="currentColor" x="-9" dy="0.32em">0.50</text></g><g class="tick" opacity="1" transform="translate(0,88.1923076923077)"><line stroke="currentColor" x2="-6"/><text fill="currentColor" x="-9" dy="0.32em">0.55</text></g><g class="tick" opacity="1" transform="translate(0,44.34615384615388)"><line stroke="currentColor" x2="-6"/><text fill="currentColor" x="-9" dy="0.32em">0.60</text></g><g class="tick" opacity="1" transform="translate(0,0.5)"><line stroke="currentColor" x2="-6"/><text fill="currentColor" x="-9" dy="0.32em">0.65</text></g><text x="4" text-anchor="start" dominant-baseline="hanging" style="font-family: Arial, sans-serif; font-size: 12px; fill: rgb(123, 123, 123); font-weight: bold;"> Fx</text></g></g><g id="viz"><g><path d="M18.5,21.923076923076973L37,21.923076923076973L55.5,21.923076923076973L74,21.923076923076973L92.5,21.923076923076973L111,21.923076923076973L129.5,21.923076923076973L148,21.923076923076973L166.5,21.923076923076973L185,21.923076923076973L203.50000000000003,21.923076923076973L222,186.34615384615387L240.5,186.34615384615387L259,186.34615384615387L277.5,186.34615384615387L296,186.34615384615387L314.5,186.34615384615387L333,186.34615384615387L351.5,186.34615384615387L370,186.34615384615387L388.5,186.34615384615387L407.00000000000006,186.34615384615387L425.49999999999994,186.34615384615387L444,186.34615384615387L462.5,186.34615384615387L481,186.34615384615387L499.50000000000006,186.34615384615387L518,186.34615384615387L536.5,186.34615384615387L555,186.34615384615387L573.5,186.34615384615387L592,186.34615384615387L610.5,186.34615384615387L629,186.34615384615387L647.5,186.34615384615387L666,186.34615384615387L684.5,186.34615384615387L703,350.7692307692308L721.5,570" stroke="#1f77b4" fill="none"/><g><circle class="dot" cx="18.5" cy="21.923076923076973" r="4" fill="#1f77b4"/><circle class="dot" cx="37" cy="21.923076923076973" r="4" fill="#1f77b4"/><circle class="dot" cx="55.5" cy="21.923076923076973" r="4" fill="#1f77b4"/><circle class="dot" cx="74" cy="21.923076923076973" r="4" fill="#1f77b4"/><circle class="dot" cx="92.5" cy="21.923076923076973" r="4" fill="#1f77b4"/><circle class="dot" cx="111" cy="21.923076923076973" r="4" fill="#1f77b4"/><circle class="dot" cx="129.5" cy="21.923076923076973" r="4" fill="#1f77b4"/><circle class="dot" cx="148" cy="21.923076923076973" r="4" fill="#1f77b4"/><circle class="dot" cx="166.5" cy="21.923076923076973" r="4" fill="#1f77b4"/><circle class="dot" cx="185" cy="21.923076923076973" r="4" fill="#1f77b4"/><circle class="dot" cx="203.50000000000003" cy="21.923076923076973" r="4" fill="#1f77b4"/><circle class="dot" cx="222" cy="186.34615384615387" r="4" fill="#1f77b4"/><circle class="dot" cx="240.5" cy="186.34615384615387" r="4" fill="#1f77b4"/><circle class="dot" cx="259" cy="186.34615384615387" r="4" fill="#1f77b4"/><circle class="dot" cx="277.5" cy="186.34615384615387" r="4" fill="#1f77b4"/><circle class="dot" cx="296" cy="186.34615384615387" r="4" fill="#1f77b4"/><circle class="dot" cx="314.5" cy="186.34615384615387" r="4" fill="#1f77b4"/><circle class="dot" cx="333" cy="186.34615384615387" r="4" fill="#1f77b4"/><circle class="dot" cx="351.5" cy="186.34615384615387" r="4" fill="#1f77b4"/><circle class="dot" cx="370" cy="186.34615384615387" r="4" fill="#1f77b4"/><circle class="dot" cx="388.5" cy="186.34615384615387" r="4" fill="#1f77b4"/><circle class="dot" cx="407.00000000000006" cy="186.34615384615387" r="4" fill="#1f77b4"/><circle class="dot" cx="425.49999999999994" cy="186.34615384615387" r="4" fill="#1f77b4"/><circle class="dot" cx="444" cy="186.34615384615387" r="4" fill="#1f77b4"/><circle class="dot" cx="462.5" cy="186.34615384615387" r="4" fill="#1f77b4"/><circle class="dot" cx="481" cy="186.34615384615387" r="4" fill="#1f77b4"/><circle class="dot" cx="499.50000000000006" cy="186.34615384615387" r="4" fill="#1f77b4"/><circle class="dot" cx="518" cy="186.34615384615387" r="4" fill="#1f77b4"/><circle class="dot" cx="536.5" cy="186.34615384615387" r="4" fill="#1f77b4"/><circle class="dot" cx="555" cy="186.34615384615387" r="4" fill="#1f77b4"/><circle class="dot" cx="573.5" cy="186.34615384615387" r="4" fill="#1f77b4"/><circle class="dot" cx="592" cy="186.34615384615387" r="4" fill="#1f77b4"/><circle class="dot" cx="610.5" cy="186.34615384615387" r="4" fill="#1f77b4"/><circle class="dot" cx="629" cy="186.34615384615387" r="4" fill="#1f77b4"/><circle class="dot" cx="647.5" cy="186.34615384615387" r="4" fill="#1f77b4"/><circle class="dot" cx="666" cy="186.34615384615387" r="4" fill="#1f77b4"/><circle class="dot" cx="684.5" cy="186.34615384615387" r="4" fill="#1f77b4"/><circle class="dot" cx="703" cy="350.7692307692308" r="4" fill="#1f77b4"/><circle class="dot" cx="721.5" cy="570" r="4" fill="#1f77b4"/></g><text font-family="sans-serif" font-size="10" class="labels" x="18.5" y="21.923076923076973" dx="0" dy="-4" text-anchor="middle"/></g></g></g><text y="4" x="4" style="font-family: Arial, sans-serif; font-size: 12px; fill: black; font-weight: bold; dominant-baseline: hanging;"/></g><g id="grid"><rect x="0" y="0" width="805" height="600" fill="none" stroke="#ccc"/></g></g></svg>