<svg xmlns="http://www.w3.org/2000/svg" width="805" height="600"><rect width="805" height="600" x="0" y="0" fill="#FFFFFF" id="backgorund"/><g id="viz"><clipPath id="serieClipPath"><rect x="-50" y="-10" width="805" height="600"/></clipPath><g transform="translate(0,0)"><g transform="translate(50,10)" clip-path="url(#serieClipPath)"><g id="axis"><g transform="translate(0,570)" fill="none" font-size="10" font-family="sans-serif" text-anchor="middle"><path class="domain" stroke="currentColor" d="M0.5,0.5H740.5"/><g class="tick" opacity="1" transform="translate(0.5,0)"><line stroke="currentColor" y2="6"/><text fill="currentColor" y="9" dy="0.71em">0</text></g><g class="tick" opacity="1" transform="translate(106.21428571428571,0)"><line stroke="currentColor" y2="6"/><text fill="currentColor" y="9" dy="0.71em">5</text></g><g class="tick" opacity="1" transform="translate(211.92857142857142,0)"><line stroke="currentColor" y2="6"/><text fill="currentColor" y="9" dy="0.71em">10</text></g><g class="tick" opacity="1" transform="translate(317.6428571428571,0)"><line stroke="currentColor" y2="6"/><text fill="currentColor" y="9" dy="0.71em">15</text></g><g class="tick" opacity="1" transform="translate(423.35714285714283,0)"><line stroke="currentColor" y2="6"/><text fill="currentColor" y="9" dy="0.71em">20</text></g><g class="tick" opacity="1" transform="translate(529.0714285714286,0)"><line stroke="currentColor" y2="6"/><text fill="currentColor" y="9" dy="0.71em">25</text></g><g class="tick" opacity="1" transform="translate(634.7857142857142,0)"><line stroke="currentColor" y2="6"/><text fill="currentColor" y="9" dy="0.71em">30</text></g><g class="tick" opacity="1" transform="translate(740.5,0)"><line stroke="currentColor" y2="6"/><text fill="currentColor" y="9" dy="0.71em">35</text></g><text x="740" dy="-5" text-anchor="end" style="font-family: Arial, sans-serif; font-size: 12px; fill: rgb(123, 123, 123); font-weight: bold;">Geração</text></g><g transform="translate(0,0)" fill="none" font-size="10" font-family="sans-serif" text-anchor="end"><path class="domain" stroke="currentColor" d="M0.5,570.5V0.5"/><g class="tick" opacity="1" transform="translate(0,570.5)"><line stroke="currentColor" x2="-6"/><text fill="currentColor" x="-9" dy="0.32em">0.0</text></g><g class="tick" opacity="1" transform="translate(0,499.25)"><line stroke="currentColor" x2="-6"/><text fill="currentColor" x="-9" dy="0.32em">0.1</text></g><g class="tick" opacity="1" transform="translate(0,428)"><line stroke="currentColor" x2="-6"/><text fill="currentColor" x="-9" dy="0.32em">0.2</text></g><g class="tick" opacity="1" transform="translate(0,356.75)"><line stroke="currentColor" x2="-6"/><text fill="currentColor" x="-9" dy="0.32em">0.3</text></g><g class="tick" opacity="1" transform="translate(0,285.5)"><line stroke="currentColor" x2="-6"/><text fill="currentColor" x="-9" dy="0.32em">0.4</text></g><g class="tick" opacity="1" transform="translate(0,214.25)"><line stroke="currentColor" x2="-6"/><text fill="currentColor" x="-9" dy="0.32em">0.5</text></g><g class="tick" opacity="1" transform="translate(0,143.00000000000006)"><line stroke="currentColor" x2="-6"/><text fill="currentColor" x="-9" dy="0.32em">0.6</text></g><g class="tick" opacity="1" transform="translate(0,71.75000000000006)"><line stroke="currentColor" x2="-6"/><text fill="currentColor" x="-9" dy="0.32em">0.7</text></g><g class="tick" opacity="1" transform="translate(0,0.5)"><line stroke="currentColor" x2="-6"/><text fill="currentColor" x="-9" dy="0.32em">0.8</text></g><text x="4" text-anchor="start" dominant-baseline="hanging" style="font-family: Arial, sans-serif; font-size: 12px; fill: rgb(123, 123, 123); font-weight: bold;"> Fx</text></g></g><g id="viz"><g><path d="M21.142857142857142,35.625L42.285714285714285,35.625L63.42857142857143,35.625L84.57142857142857,35.625L105.71428571428571,35.625L126.85714285714286,35.625L148,35.625L169.14285714285714,35.625L190.28571428571428,35.625L211.42857142857142,35.625L232.57142857142856,35.625L253.71428571428572,35.625L274.8571428571429,35.625L296,35.625L317.1428571428571,35.625L338.2857142857143,35.625L359.42857142857144,258.28125L380.57142857142856,258.28125L401.71428571428567,258.28125L422.85714285714283,258.28125L444,258.28125L465.1428571428571,258.28125L486.2857142857143,258.28125L507.42857142857144,258.28125L528.5714285714286,258.28125L549.7142857142858,258.28125L570.8571428571429,258.28125L592,258.28125L613.1428571428572,258.28125L634.2857142857142,258.28125L655.4285714285714,258.28125L676.5714285714286,258.28125L697.7142857142857,258.28125L718.8571428571429,570" stroke="#1f77b4" fill="none"/><g><circle class="dot" cx="21.142857142857142" cy="35.625" r="4" fill="#1f77b4"/><circle class="dot" cx="42.285714285714285" cy="35.625" r="4" fill="#1f77b4"/><circle class="dot" cx="63.42857142857143" cy="35.625" r="4" fill="#1f77b4"/><circle class="dot" cx="84.57142857142857" cy="35.625" r="4" fill="#1f77b4"/><circle class="dot" cx="105.71428571428571" cy="35.625" r="4" fill="#1f77b4"/><circle class="dot" cx="126.85714285714286" cy="35.625" r="4" fill="#1f77b4"/><circle class="dot" cx="148" cy="35.625" r="4" fill="#1f77b4"/><circle class="dot" cx="169.14285714285714" cy="35.625" r="4" fill="#1f77b4"/><circle class="dot" cx="190.28571428571428" cy="35.625" r="4" fill="#1f77b4"/><circle class="dot" cx="211.42857142857142" cy="35.625" r="4" fill="#1f77b4"/><circle class="dot" cx="232.57142857142856" cy="35.625" r="4" fill="#1f77b4"/><circle class="dot" cx="253.71428571428572" cy="35.625" r="4" fill="#1f77b4"/><circle class="dot" cx="274.8571428571429" cy="35.625" r="4" fill="#1f77b4"/><circle class="dot" cx="296" cy="35.625" r="4" fill="#1f77b4"/><circle class="dot" cx="317.1428571428571" cy="35.625" r="4" fill="#1f77b4"/><circle class="dot" cx="338.2857142857143" cy="35.625" r="4" fill="#1f77b4"/><circle class="dot" cx="359.42857142857144" cy="258.28125" r="4" fill="#1f77b4"/><circle class="dot" cx="380.57142857142856" cy="258.28125" r="4" fill="#1f77b4"/><circle class="dot" cx="401.71428571428567" cy="258.28125" r="4" fill="#1f77b4"/><circle class="dot" cx="422.85714285714283" cy="258.28125" r="4" fill="#1f77b4"/><circle class="dot" cx="444" cy="258.28125" r="4" fill="#1f77b4"/><circle class="dot" cx="465.1428571428571" cy="258.28125" r="4" fill="#1f77b4"/><circle class="dot" cx="486.2857142857143" cy="258.28125" r="4" fill="#1f77b4"/><circle class="dot" cx="507.42857142857144" cy="258.28125" r="4" fill="#1f77b4"/><circle class="dot" cx="528.5714285714286" cy="258.28125" r="4" fill="#1f77b4"/><circle class="dot" cx="549.7142857142858" cy="258.28125" r="4" fill="#1f77b4"/><circle class="dot" cx="570.8571428571429" cy="258.28125" r="4" fill="#1f77b4"/><circle class="dot" cx="592" cy="258.28125" r="4" fill="#1f77b4"/><circle class="dot" cx="613.1428571428572" cy="258.28125" r="4" fill="#1f77b4"/><circle class="dot" cx="634.2857142857142" cy="258.28125" r="4" fill="#1f77b4"/><circle class="dot" cx="655.4285714285714" cy="258.28125" r="4" fill="#1f77b4"/><circle class="dot" cx="676.5714285714286" cy="258.28125" r="4" fill="#1f77b4"/><circle class="dot" cx="697.7142857142857" cy="258.28125" r="4" fill="#1f77b4"/><circle class="dot" cx="718.8571428571429" cy="570" r="4" fill="#1f77b4"/></g><text font-family="sans-serif" font-size="10" class="labels" x="21.142857142857142" y="35.625" dx="0" dy="-4" text-anchor="middle"/></g></g></g><text y="4" x="4" style="font-family: Arial, sans-serif; font-size: 12px; fill: black; font-weight: bold; dominant-baseline: hanging;"/></g><g id="grid"><rect x="0" y="0" width="805" height="600" fill="none" stroke="#ccc"/></g></g></svg>